<?xml version="1.0" encoding="utf-8"?>
<!-- Generator: Adobe Illustrator 22.0.1, SVG Export Plug-In . SVG Version: 6.00 Build 0)  -->
<svg version="1.1" id="GMAC_LOGO_NEG_REG_RGB" xmlns="http://www.w3.org/2000/svg" xmlns:xlink="http://www.w3.org/1999/xlink"
	 x="0px" y="0px" viewBox="0 0 283.5 283.5" style="enable-background:new 0 0 283.5 283.5;" xml:space="preserve">
<style type="text/css">
	.st0{fill:#FFFFFF;}
	.st1{fill:#393636;}
	.st2{fill:#62A52D;}
</style>
<title>GMAC_LOGO_NEG_REG_RGB_2</title>
<rect class="st0" width="283.5" height="283.5"/>
<path class="st1" d="M42.9,50.8l-1.1-4.2c-1.8,3.2-5.1,5-8.8,4.8c-3.9,0.1-7.6-1.6-10.1-4.5c-2.8-3.2-4.2-7.3-4.1-11.5
	c-0.1-4.3,1.4-8.4,4.3-11.5c2.7-3,6.5-4.6,10.6-4.6c2.7,0,5.3,0.7,7.5,2.1c2.2,1.3,3.9,3.2,5,5.5l-4,3.2c-0.8-1.7-2.1-3.2-3.6-4.2
	c-1.5-1-3.2-1.5-5-1.4c-2.5,0-5,1.1-6.6,3c-1.9,2.2-2.8,5.1-2.7,7.9c-0.1,2.8,0.8,5.5,2.5,7.7c1.5,1.9,3.9,3,6.4,3
	c2,0.1,4-0.6,5.4-1.9c1.3-1.4,2.2-3.1,2.4-5h-9.2v-4.8h14.6v16.6H42.9z M63.7,28.5c-0.6-0.2-1.2-0.3-1.8-0.3c-2.5,0-4.3,1.4-5.6,4.1
	v-3.5h-5.2v22h5.2V40c-0.1-1.7,0.4-3.3,1.3-4.7c0.8-1.2,2.2-1.9,3.6-1.8c0.6,0,1.1,0.1,1.7,0.3L63.7,28.5 M73.8,46.9
	c-0.8,0-1.6-0.2-2.2-0.7c-0.6-0.5-0.9-1.2-0.8-2c0-1.7,1.1-2.8,3.4-3.2l4.9-0.9v0.4c0.1,1.7-0.4,3.4-1.5,4.7
	C76.6,46.3,75.2,46.9,73.8,46.9 M85.5,50.8c-1-1.6-1.4-3.5-1.4-5.4v-9.1c0-2.7-0.8-4.7-2.3-6c-1.5-1.3-3.7-2-6.6-2
	c-2.2-0.1-4.5,0.6-6.2,2c-1.5,1.1-2.3,2.9-2.3,4.7c0,0.6,0.1,1.3,0.4,1.9l4.6-1.6c-0.1-0.2-0.1-0.3-0.1-0.5c0-0.7,0.4-1.4,1-1.8
	c0.8-0.5,1.7-0.7,2.7-0.7c2.5,0,3.7,1.1,3.7,3.3v0.8l-6.1,1c-1.9,0.3-3.7,1.1-5.2,2.3c-1.4,1.3-2.1,3.1-2,4.9
	c-0.2,3.6,2.6,6.6,6.1,6.8c0.2,0,0.5,0,0.7,0c2.9,0.1,5.6-1.5,6.8-4.1c-0.1,1.2,0.3,2.5,1,3.5L85.5,50.8 M94.8,44.4
	c-2.2-2.7-2.2-6.5,0-9.1c1-1.2,2.5-1.8,4.1-1.8c1.6,0,3.1,0.6,4.1,1.8c2.2,2.7,2.2,6.5,0,9.1c-1,1.2-2.5,1.8-4.1,1.8
	C97.3,46.3,95.8,45.6,94.8,44.4 M104.3,19.8v11.7c-1.3-2.2-3.4-3.3-6.4-3.3c-2.7,0-5.2,1.2-7,3.2c-2.1,2.3-3.1,5.3-3,8.4
	c-0.2,3.1,0.9,6.1,2.9,8.4c1.8,2,4.4,3.2,7.1,3.1c2.7,0.1,5.1-1.4,6.4-3.8v3.1h5.2v-31L104.3,19.8z M113.4,42.5
	c-0.2,2.4,0.6,4.7,2.1,6.6c1.4,1.5,3.4,2.4,5.4,2.3c2.8,0.1,5.3-1.5,6.5-4.1v3.5h5.1v-22h-5.1v11.3c0.1,1.6-0.4,3.1-1.3,4.4
	c-0.8,1.1-2.1,1.7-3.4,1.7c-2.7,0-4.1-1.7-4.1-5V28.8h-5.2L113.4,42.5 M144.2,46.9c-0.8,0-1.6-0.2-2.2-0.7c-0.6-0.5-0.9-1.2-0.8-2
	c0-1.7,1.1-2.8,3.4-3.2l4.9-0.9v0.4c0.1,1.7-0.4,3.4-1.5,4.7C147,46.3,145.6,46.9,144.2,46.9 M155.9,50.8c-1-1.6-1.4-3.5-1.4-5.4
	v-9.2c0-2.7-0.8-4.7-2.3-6c-1.5-1.3-3.7-2-6.6-2c-2.2-0.1-4.5,0.6-6.2,2c-1.5,1.1-2.3,2.9-2.3,4.7c0,0.6,0.1,1.3,0.4,1.9l4.6-1.6
	c-0.1-0.2-0.1-0.4-0.1-0.6c0-0.7,0.4-1.4,1-1.8c0.8-0.5,1.7-0.7,2.7-0.7c2.5,0,3.7,1.1,3.7,3.3v0.8l-6.1,1c-1.9,0.3-3.7,1.1-5.2,2.3
	c-1.4,1.3-2.1,3.1-2,4.9c-0.2,3.6,2.5,6.6,6.1,6.8c0.2,0,0.5,0,0.7,0c2.9,0.1,5.6-1.5,6.8-4.1c-0.1,1.2,0.3,2.5,1,3.5L155.9,50.8
	 M160.6,33.4v11.1c0,4.7,2.2,7,6.5,7c1.2,0,2.3-0.2,3.4-0.6l-0.5-4.6c-0.6,0.2-1.1,0.3-1.7,0.3c-1.7,0-2.6-1-2.6-3.1v-10h4.4v-4.6
	h-4.4v-5.9h-5.1v5.9h-3.1v4.5H160.6z M183.2,32.5c1.3,0,2.6,0.4,3.6,1.2c1,0.9,1.6,2.1,1.8,3.4h-10.8c0.3-1.3,1.1-2.4,2.1-3.3
	C180.7,32.9,181.9,32.5,183.2,32.5 M193.3,39.2c0.1-2.9-0.9-5.7-2.8-7.9c-1.8-2-4.4-3.2-7.1-3.1c-2.9-0.1-5.6,1.1-7.6,3.2
	c-4.1,4.8-4.1,11.9,0,16.7c1.9,2.1,4.6,3.3,7.4,3.2c4.4,0,7.6-2.1,9.5-6.4l-3.9-2.4c-1.3,2.7-3.1,4-5.6,4c-1.4,0-2.8-0.5-3.8-1.5
	c-1-1.1-1.7-2.5-1.8-4h15.6L193.3,39.2z M25.3,93.5V74.6c0.2,0.5,0.6,2.1,1.4,4.7l5.6,14.2h5.2L43,79.3l1.4-4.7v18.9h5.2v-31H44
	l-9.2,24.6l-9.1-24.6H20v31L25.3,93.5z M61.5,89.6c-0.8,0-1.6-0.2-2.2-0.7c-0.6-0.5-0.9-1.2-0.8-2c0-1.7,1.1-2.8,3.4-3.2l4.9-0.9
	v0.4c0.1,1.7-0.4,3.4-1.5,4.7C64.3,89.1,62.9,89.7,61.5,89.6 M73.3,93.5c-1-1.6-1.4-3.5-1.4-5.4v-9.2c0-2.7-0.8-4.7-2.3-6
	c-1.5-1.3-3.7-2-6.6-2c-2.2-0.1-4.5,0.6-6.2,2c-1.5,1.1-2.3,2.9-2.3,4.7c0,0.6,0.1,1.3,0.4,1.9l4.6-1.6c-0.1-0.2-0.1-0.4-0.1-0.6
	c0-0.7,0.4-1.4,1-1.8c0.8-0.5,1.7-0.7,2.7-0.7c2.5,0,3.7,1.1,3.7,3.3V79l-6.1,1c-1.9,0.3-3.7,1.1-5.2,2.3c-1.4,1.3-2.1,3.1-2,4.9
	c-0.2,3.6,2.5,6.6,6.1,6.8c0.2,0,0.5,0,0.7,0c2.9,0.1,5.6-1.5,6.8-4.1c-0.1,1.2,0.3,2.5,1,3.5L73.3,93.5 M96.2,78.4
	c0.1-2-0.6-4-1.9-5.5c-1.3-1.4-3.2-2.2-5.2-2.1c-2.9,0-5.5,1.6-6.9,4.1v-3.4h-5.1v22h5.1V82.3c-0.1-1.6,0.4-3.2,1.3-4.4
	c0.8-1.1,2-1.7,3.4-1.7c2.8,0,4.2,1.6,4.1,4.7v12.7h5.1V78.4 M108.2,89.6c-0.8,0-1.6-0.2-2.2-0.7c-0.6-0.5-0.9-1.2-0.8-2
	c0-1.7,1.1-2.8,3.4-3.2l4.9-0.9v0.4c0.1,1.7-0.4,3.4-1.5,4.7C111,89.1,109.6,89.7,108.2,89.6 M120,93.5c-1-1.6-1.4-3.5-1.4-5.4v-9.2
	c0-2.7-0.8-4.7-2.3-6c-1.5-1.3-3.7-2-6.6-2c-2.2-0.1-4.5,0.6-6.2,2c-1.5,1.1-2.3,2.9-2.3,4.7c0,0.6,0.1,1.3,0.4,1.9l4.6-1.6
	c-0.1-0.2-0.1-0.4-0.1-0.6c0-0.7,0.4-1.4,1-1.8c0.8-0.5,1.7-0.7,2.7-0.7c2.5,0,3.7,1.1,3.7,3.3V79l-6.1,1c-1.9,0.3-3.7,1.1-5.2,2.3
	c-1.4,1.3-2.1,3.1-2,4.9c-0.2,3.6,2.5,6.6,6.1,6.8c0.2,0,0.5,0,0.7,0c2.9,0.1,5.6-1.5,6.8-4.1c-0.1,1.2,0.3,2.5,1,3.5L120,93.5
	 M137.5,77.4c1.1,1.3,1.7,2.9,1.6,4.6c0.1,1.7-0.5,3.3-1.6,4.6c-1,1.1-2.4,1.7-3.9,1.7c-1.5,0-2.8-0.6-3.8-1.7
	c-1.1-1.3-1.6-2.9-1.5-4.6c-0.1-1.7,0.5-3.3,1.5-4.6c1-1.1,2.4-1.7,3.8-1.7C135.1,75.7,136.5,76.3,137.5,77.4 M124.6,93.1
	c-0.4,0.8-0.6,1.6-0.6,2.5c-0.1,2.2,0.9,4.2,2.6,5.5c2.1,1.4,4.6,2.1,7.1,2c2.8,0.1,5.5-0.9,7.4-2.9c1.8-1.9,2.7-4.7,2.7-8.3V71.5
	h-5.2v2.4c-1.2-2-3.4-3.1-5.7-3c-2.7,0-5.2,1.1-6.9,3.2c-3.8,4.6-3.8,11.3,0,15.9c1.7,2,4.3,3.2,6.9,3.1c2.4,0.1,4.6-1.2,5.8-3.3
	v2.9c0,4-1.7,6-5,6c-1.1,0.1-2.3-0.2-3.3-0.7c-0.7-0.3-1.2-1-1.2-1.8c0-0.5,0.1-1,0.3-1.5L124.6,93.1 M157.5,75.2
	c1.3,0,2.6,0.4,3.6,1.2c1,0.9,1.6,2.1,1.8,3.4h-11c0.3-1.3,1.1-2.4,2.1-3.3c1-0.9,2.2-1.3,3.5-1.3 M167.4,81.9
	c0.1-2.9-0.9-5.7-2.8-7.9c-1.8-2-4.4-3.2-7.1-3.1c-2.9-0.1-5.6,1.1-7.6,3.2c-4.1,4.8-4.1,11.9,0,16.7c1.9,2.1,4.6,3.3,7.4,3.2
	c4.4,0,7.6-2.1,9.6-6.4l-3.9-2.4c-1.3,2.7-3.1,4-5.6,4c-1.4,0-2.8-0.5-3.8-1.5c-1.1-1.1-1.7-2.5-1.8-4h15.6L167.4,81.9z M200.7,78.1
	c0.1-1.9-0.5-3.8-1.7-5.3c-1.2-1.4-3-2.1-4.8-2c-1.3,0-2.6,0.4-3.7,1c-1.2,0.7-2.1,1.6-2.8,2.8c-0.8-2.4-3.1-4-5.6-3.8
	c-2.5,0-4.7,1.4-5.9,3.5v-2.9h-5.1v22h5.1V81.2c-0.1-1.4,0.3-2.8,1.1-4c0.6-0.9,1.6-1.4,2.7-1.4c2.2,0,3.3,1.4,3.3,4.2v13.5h5.1
	V81.3c-0.1-1.4,0.3-2.9,1.1-4.1c0.6-0.9,1.7-1.5,2.8-1.4c2.1,0,3.2,1.4,3.2,4.1v13.6h5.1L200.7,78.1 M214.6,75.1
	c1.3-0.1,2.6,0.4,3.6,1.2c1,0.9,1.6,2.1,1.8,3.4H209c0.3-1.3,1.1-2.4,2.1-3.3C212,75.6,213.2,75.1,214.6,75.1 M224.5,81.9
	c0.1-2.9-0.9-5.7-2.8-7.9c-1.8-2-4.4-3.2-7.1-3.1c-2.9-0.1-5.6,1.1-7.6,3.2c-4.1,4.8-4.1,11.9,0,16.7c1.9,2.1,4.6,3.3,7.4,3.2
	c4.4,0,7.6-2.1,9.5-6.4l-3.9-2.4c-1.2,2.7-3.1,4-5.6,4c-1.4,0-2.8-0.5-3.8-1.5c-1.1-1.1-1.7-2.5-1.8-4h15.7L224.5,81.9z M247.7,78.5
	c0.1-2-0.6-4-1.9-5.5c-1.3-1.4-3.2-2.2-5.2-2.1c-2.9,0-5.5,1.6-6.9,4.1v-3.5h-5.1v22h5.1V82.3c-0.1-1.6,0.4-3.2,1.3-4.4
	c0.8-1.1,2-1.7,3.4-1.7c2.8,0,4.2,1.6,4.1,4.7v12.7h5.1L247.7,78.5 M254,76v11.1c0,4.7,2.2,7,6.5,7c1.2,0,2.3-0.2,3.4-0.6l-0.5-4.6
	c-0.6,0.2-1.1,0.3-1.7,0.3c-1.7,0-2.6-1-2.6-3.1v-10h4.5v-4.6h-4.4v-5.9h-5.2v5.9h-3.1v4.5L254,76z"/>
<path class="st2" d="M32,115.4l-2.6,7.4h7.4l-2.6-7.4c-0.4-1-0.7-2.1-1.1-3.4L32,115.4z M18.9,136.2l11.6-31h5.2l11.6,31h-5.8
	l-2.8-8.1H27.5l-2.9,8.1H18.9z M55.7,129.8c1,1.2,2.5,1.9,4.1,1.8c1.6,0,3.1-0.6,4.1-1.8c1.1-1.3,1.7-2.9,1.6-4.6
	c0.1-1.7-0.5-3.3-1.6-4.6c-1-1.2-2.5-1.8-4.1-1.8c-1.6,0-3.1,0.6-4.1,1.8c-1.1,1.3-1.7,2.9-1.6,4.6C54,126.9,54.5,128.5,55.7,129.8
	 M70.3,105.2v31h-5.1v-3.1c-1.2,2.3-3.7,3.8-6.3,3.7c-2.7,0.1-5.3-1.1-7.2-3.1c-2-2.3-3-5.4-2.9-8.4c-0.1-3.1,0.9-6.1,3-8.4
	c1.8-2,4.3-3.2,7-3.2c3,0,5.1,1.1,6.3,3.3v-11.8H70.3z M104.9,120.8v15.4h-5.1v-13.5c0-2.8-1.1-4.1-3.2-4.1c-1.1,0-2.2,0.5-2.8,1.4
	c-0.8,1.2-1.2,2.6-1.1,4.1v12.2h-5.2v-13.6c0-2.8-1.1-4.2-3.3-4.2c-1.1,0-2.1,0.5-2.7,1.4c-0.8,1.2-1.2,2.6-1.1,4v12.3h-5.1v-22h5.1
	v2.9c1.1-2.2,3.4-3.5,5.9-3.5c2.5-0.2,4.9,1.4,5.6,3.8c0.7-1.2,1.6-2.2,2.8-2.8c1.1-0.6,2.4-1,3.7-1c1.8-0.1,3.6,0.6,4.8,2
	C104.4,117,105,118.9,104.9,120.8 M109.3,114.1h5.2v22h-5.2V114.1z M109,105.1h5.7v5.8H109V105.1z M123.8,119.6
	c0,1.4,1.6,2.4,4.8,3.1c1.9,0.3,3.7,1.2,5.2,2.4c1.1,1.2,1.7,2.7,1.6,4.3c0.1,2-0.7,3.9-2.2,5.2c-1.6,1.4-3.7,2.2-5.9,2.1
	c-2.1,0.1-4.1-0.6-5.8-1.8c-1.5-1.2-2.7-2.9-3.4-4.7l4.1-2.9c0.4,1.3,1.1,2.5,2,3.5c0.8,0.8,2,1.3,3.2,1.3c0.8,0,1.6-0.2,2.2-0.7
	c0.6-0.4,1-1.1,1-1.8c0-0.7-0.4-1.4-1-1.7c-1-0.5-2.2-0.9-3.3-1.1c-1.9-0.3-3.7-1.1-5.1-2.4c-1.3-1.1-2-2.8-1.9-4.5
	c-0.1-1.8,0.8-3.6,2.2-4.6c1.5-1.2,3.4-1.8,5.4-1.7c1.8-0.1,3.6,0.4,5.2,1.3c1.4,1.1,2.5,2.5,3.2,4.2l-3.7,2.4
	c-1-2.6-2.5-3.9-4.6-3.9C124.8,117.7,123.8,118.4,123.8,119.6 M144.3,119.7c0,1.4,1.6,2.4,4.8,3.1c1.9,0.3,3.7,1.2,5.2,2.4
	c1.1,1.2,1.7,2.7,1.6,4.3c0.1,2-0.7,3.9-2.2,5.2c-1.6,1.4-3.7,2.2-5.9,2.1c-2.1,0.1-4.1-0.6-5.8-1.8c-1.5-1.2-2.7-2.9-3.4-4.7
	l4.1-2.9c0.4,1.3,1.1,2.5,2,3.5c0.8,0.8,2,1.3,3.2,1.3c0.8,0,1.6-0.2,2.2-0.7c0.6-0.4,1-1.1,1-1.8c0-0.7-0.4-1.4-1-1.7
	c-1-0.5-2.2-0.9-3.3-1.1c-1.9-0.3-3.7-1.1-5.1-2.4c-1.3-1.1-2-2.8-1.9-4.5c-0.1-1.8,0.8-3.6,2.2-4.6c1.5-1.2,3.4-1.8,5.4-1.7
	c1.8-0.1,3.6,0.4,5.2,1.3c1.4,1.1,2.6,2.5,3.2,4.2l-3.7,2.4c-1-2.6-2.5-3.9-4.6-3.9C145.3,117.7,144.3,118.4,144.3,119.7
	 M159.9,114.3h5.2v22h-5.2V114.3z M159.7,105.3h5.7v5.8h-5.7L159.7,105.3z M176,130c1.1,1.1,2.6,1.8,4.1,1.8c1.6,0,3.1-0.6,4.1-1.8
	c1.2-1.2,1.8-2.9,1.7-4.6c0.1-1.7-0.5-3.4-1.7-4.6c-1.1-1.1-2.6-1.7-4.1-1.7c-1.6,0-3,0.6-4.1,1.7c-1.2,1.2-1.8,2.9-1.7,4.6
	C174.2,127.1,174.9,128.7,176,130 M188,116.6c2.2,2,3.3,4.9,3.3,8.5c0,3.6-1.1,6.5-3.3,8.5c-4.4,4.1-11.2,4.1-15.6,0
	c-2.2-2-3.3-4.9-3.3-8.5s1.1-6.5,3.3-8.5C176.8,112.5,183.6,112.5,188,116.6 M214.4,121.1v15h-5.1v-12.6c0-3.1-1.4-4.7-4.1-4.7
	c-1.3,0-2.6,0.6-3.4,1.7c-0.9,1.3-1.4,2.9-1.3,4.4v11.1h-5.2v-22h5.2v3.5c1.3-2.6,4-4.2,6.9-4.1c1.9-0.1,3.8,0.7,5.2,2.1
	C213.8,117.2,214.5,119.1,214.4,121.1 M42.3,167.9l4.2,3.3c-1.4,2.5-3.3,4.7-5.6,6.4c-2.2,1.4-4.7,2-7.3,1.9
	c-4,0.1-7.8-1.5-10.5-4.4c-2.8-3-4.1-6.8-4.1-11.6c-0.2-4.3,1.3-8.5,4.2-11.6c2.7-3,6.6-4.6,10.6-4.5c2.7-0.1,5.4,0.7,7.7,2.2
	c2.2,1.4,3.8,3.5,4.8,5.9l-4.3,3.4c-1.8-4.1-4.6-6.1-8.3-6.1c-2.5,0-4.9,1-6.6,2.9c-3.6,4.5-3.6,10.9,0,15.4c1.6,1.9,4,3,6.6,3
	C37.4,174,40.3,172,42.3,167.9 M55.8,172.5c1.1,1.1,2.6,1.8,4.1,1.8c1.6,0,3.1-0.6,4.1-1.8c1.2-1.2,1.8-2.9,1.7-4.6
	c0.1-1.7-0.5-3.4-1.7-4.6c-1.1-1.1-2.6-1.7-4.1-1.7c-1.6,0-3,0.6-4.1,1.7c-1.2,1.2-1.8,2.9-1.7,4.6C54,169.6,54.6,171.3,55.8,172.5
	 M67.7,159.3c2.2,2,3.3,4.9,3.3,8.5c0,3.6-1.1,6.5-3.3,8.5c-4.4,4.1-11.2,4.1-15.6,0c-2.2-2-3.3-4.9-3.3-8.5c0-3.6,1.1-6.5,3.3-8.5
	C56.5,155.3,63.3,155.3,67.7,159.3 M74.4,170.5v-13.6h5.2v12.4c0,3.3,1.4,5,4.1,5c1.3,0,2.6-0.6,3.4-1.7c0.9-1.3,1.4-2.8,1.3-4.4
	v-11.3h5.1v22h-5.1v-3.5c-1.1,2.5-3.7,4.2-6.5,4.1c-2.1,0.1-4-0.8-5.4-2.3C75,175.3,74.2,172.9,74.4,170.5 M116.9,163.9v15h-5.2
	v-12.7c0-3.1-1.4-4.7-4.1-4.7c-1.3,0-2.6,0.6-3.4,1.7c-0.9,1.3-1.4,2.9-1.3,4.4v11.2h-5.2v-22h5.1v3.5c1.3-2.6,4-4.2,6.9-4.1
	c1.9-0.1,3.8,0.7,5.2,2.1C116.3,159.8,117,161.8,116.9,163.9 M136.1,170.2l4.2,2.9c-1.9,4.2-5.1,6.3-9.5,6.3
	c-2.9,0.1-5.7-1.1-7.6-3.2c-2.1-2.3-3.1-5.3-3-8.4c-0.1-3.1,1-6.1,3.1-8.4c1.9-2.1,4.7-3.3,7.6-3.2c2,0,4,0.5,5.8,1.6
	c1.6,1,2.9,2.6,3.5,4.4l-4.2,3c-1.1-2.5-2.8-3.8-5.1-3.8c-1.5,0-2.9,0.6-3.9,1.8c-1.1,1.3-1.6,2.9-1.5,4.6c-0.1,1.7,0.5,3.3,1.5,4.6
	c1.8,2,4.9,2.3,7.1,0.7C134.9,172.4,135.7,171.4,136.1,170.2 M144.9,156.9h5.2v22h-5.2V156.9z M144.6,147.9h5.7v5.7h-5.6
	L144.6,147.9z M154.9,147.9h5.1v31h-5.1V147.9z M170.2,152.3v2.6h2c1.1,0,1.7-0.4,1.7-1.3s-0.6-1.3-1.7-1.3H170.2z M173.6,159.6
	l-2.1-3.7h-1.4v3.7h-1.3V151h3.5c0.7,0,1.4,0.2,2,0.7c0.5,0.5,0.8,1.1,0.7,1.8c0,0.6-0.2,1.1-0.6,1.5c-0.4,0.4-0.9,0.7-1.5,0.8
	l2.1,3.8L173.6,159.6z M167.2,150.6c-2.5,2.6-2.5,6.7,0,9.3c2.6,2.6,6.7,2.6,9.2,0c0,0,0,0,0,0l0,0c2.5-2.6,2.5-6.7,0-9.3
	C173.9,148.1,169.8,148.1,167.2,150.6C167.2,150.6,167.2,150.6,167.2,150.6L167.2,150.6 M166.3,160.8c-3.1-3.1-3.1-8,0-11.1
	c0,0,0,0,0,0l0,0c3.1-3.1,8-3.1,11.1,0c1.5,1.5,2.3,3.5,2.3,5.6c0,2.1-0.8,4.1-2.3,5.5C174.3,163.9,169.3,163.9,166.3,160.8"/>
</svg>
