
<svg width="72px" height="14px" viewBox="1769 12 72 14" version="1.1" xmlns="http://www.w3.org/2000/svg" xmlns:xlink="http://www.w3.org/1999/xlink">
    <!-- Generator: Sketch 41.2 (35397) - http://www.bohemiancoding.com/sketch -->
    <desc>Created with Sketch.</desc>
    <defs></defs>
    <path d="M1782.3612,19.0936146 L1782.3612,24.9739357 L1779.6994,24.9739357 L1779.6994,19.6329339 C1779.6994,18.7282646 1779.27607,18.2759368 1778.42939,18.2759368 C1778.02345,18.2759368 1777.6871,18.4209136 1777.42034,18.7108718 C1777.15358,19.0008299 1777.0202,19.4183633 1777.0202,19.9634845 L1777.0202,24.9739357 L1774.3584,24.9739357 L1774.3584,19.6851261 C1774.3584,19.2675865 1774.25112,18.9283406 1774.03655,18.6673783 C1773.82198,18.406416 1773.50593,18.2759368 1773.08839,18.2759368 C1772.70564,18.2759368 1772.3751,18.4209136 1772.09674,18.7108718 C1771.81838,19.0008299 1771.6792,19.4183633 1771.6792,19.9634845 L1771.6792,24.9739357 L1769,24.9739357 L1769,16.1360566 L1771.6792,16.1360566 L1771.6792,17.110311 C1772.32871,16.2984282 1773.18697,15.892493 1774.25401,15.892493 C1775.36745,15.892493 1776.18512,16.3390218 1776.70705,17.2320928 C1777.34496,16.3390218 1778.26701,15.892493 1779.47323,15.892493 C1780.35471,15.892493 1781.0564,16.1824467 1781.57832,16.762363 C1782.10024,17.3422792 1782.3612,18.1193553 1782.3612,19.0936146 Z M1783.78068,24.9739357 L1783.78068,12.5 L1786.45988,12.5 L1786.45988,17.110311 C1787.21378,16.2984282 1788.19382,15.892493 1789.40004,15.892493 C1790.46709,15.892493 1791.40654,16.3042273 1792.21842,17.1277084 C1793.03031,17.9511894 1793.43624,19.0936072 1793.43624,20.5549961 C1793.43624,22.016385 1793.02741,23.1588029 1792.20972,23.9822839 C1791.39204,24.805765 1790.4207,25.2174993 1789.29566,25.2174993 C1788.10103,25.2174993 1787.15578,24.7999659 1786.45988,23.9648865 L1786.45988,24.9739357 L1783.78068,24.9739357 Z M1786.96441,22.1555569 C1787.39355,22.5614983 1787.91546,22.7644659 1788.53017,22.7644659 C1789.14489,22.7644659 1789.6668,22.5614983 1790.09594,22.1555569 C1790.52508,21.7496156 1790.73964,21.2161006 1790.73964,20.5549961 C1790.73964,19.8938916 1790.52508,19.3603767 1790.09594,18.9544354 C1789.6668,18.548494 1789.14489,18.3455264 1788.53017,18.3455264 C1787.91546,18.3455264 1787.39355,18.548494 1786.96441,18.9544354 C1786.53527,19.3603767 1786.3207,19.8938916 1786.3207,20.5549961 C1786.3207,21.2161006 1786.53527,21.7496156 1786.96441,22.1555569 Z M1803.13688,24.9739357 L1800.42289,24.9739357 C1800.17933,24.7303709 1800.04015,24.3476319 1800.00535,23.8257073 C1799.34425,24.7535733 1798.43959,25.2174993 1797.29136,25.2174993 C1796.3171,25.2174993 1795.55452,24.9565409 1795.0036,24.4346163 C1794.45268,23.9126917 1794.17722,23.2341999 1794.17722,22.3991205 C1794.17722,21.5640412 1794.49037,20.9087456 1795.11668,20.4332143 C1795.74299,19.957683 1796.58386,19.6387339 1797.63931,19.4763573 L1799.88357,19.111012 L1799.88357,18.9544354 C1799.88357,18.0961593 1799.42544,17.6670278 1798.50918,17.6670278 C1798.10324,17.6670278 1797.77559,17.7395162 1797.52622,17.8844953 C1797.27686,18.0294743 1797.15218,18.2237433 1797.15218,18.4673082 C1797.15218,18.5252998 1797.15798,18.5774915 1797.16958,18.6238848 L1794.75134,19.4589599 C1794.64695,19.0994119 1794.59476,18.8094581 1794.59476,18.58909 C1794.59476,17.7888056 1794.9688,17.1393091 1795.71689,16.6405812 C1796.46499,16.1418532 1797.39574,15.892493 1798.50918,15.892493 C1801.19999,15.892493 1802.54537,17.0059154 1802.54537,19.2327938 L1802.54537,22.7818633 C1802.54537,23.6749343 1802.74254,24.4056178 1803.13688,24.9739357 Z M1797.84808,23.1646061 C1798.45119,23.1646061 1798.94121,22.9471408 1799.31816,22.5122036 C1799.6951,22.0772665 1799.88357,21.5756464 1799.88357,21.0073285 L1799.88357,20.8333545 L1797.98725,21.1639051 C1797.17537,21.2914867 1796.76944,21.6452303 1796.76944,22.2251465 C1796.76944,22.4803097 1796.86802,22.7006745 1797.06519,22.8862477 C1797.26236,23.0718209 1797.52332,23.1646061 1797.84808,23.1646061 Z M1803.93006,24.9739357 L1803.93006,22.2251465 L1806.67885,22.2251465 L1806.67885,24.9739357 L1803.93006,24.9739357 Z M1814.13523,21.2334947 L1816.3447,22.6600815 C1815.48642,24.3650352 1814.07725,25.2174993 1812.11713,25.2174993 C1810.76013,25.2174993 1809.63511,24.7883677 1808.74203,23.9300917 C1807.84896,23.0718157 1807.40243,21.9467951 1807.40243,20.5549961 C1807.40243,19.1863938 1807.86346,18.0671723 1808.78553,17.197298 C1809.70759,16.3274236 1810.81812,15.892493 1812.11713,15.892493 C1814.05405,15.892493 1815.42843,16.6927654 1816.24031,18.2933342 L1814.08304,19.7373183 C1813.6423,18.8094524 1812.987,18.3455264 1812.11713,18.3455264 C1811.52562,18.3455264 1811.04139,18.5455945 1810.66445,18.9457367 C1810.2875,19.3458789 1810.09903,19.8822933 1810.09903,20.5549961 C1810.09903,21.2392973 1810.2817,21.7786113 1810.64705,22.1729543 C1811.0124,22.5672974 1811.49662,22.7644659 1812.09973,22.7644659 C1812.9928,22.7644659 1813.6713,22.2541473 1814.13523,21.2334947 Z M1825.12328,17.1190097 C1826.08594,17.9366915 1826.56726,19.0820089 1826.56726,20.5549961 C1826.56726,22.0279834 1826.08594,23.1733007 1825.12328,23.9909826 C1824.16062,24.8086645 1823.0066,25.2174993 1821.6612,25.2174993 C1820.31579,25.2174993 1819.16467,24.8086645 1818.20781,23.9909826 C1817.25095,23.1733007 1816.77253,22.0279834 1816.77253,20.5549961 C1816.77253,19.0820089 1817.25095,17.9366915 1818.20781,17.1190097 C1819.16467,16.3013278 1820.31579,15.892493 1821.6612,15.892493 C1823.0066,15.892493 1824.16062,16.3013278 1825.12328,17.1190097 Z M1820.11283,22.1120634 C1820.54197,22.5006073 1821.05808,22.6948763 1821.6612,22.6948763 C1822.26431,22.6948763 1822.78043,22.5006073 1823.20957,22.1120634 C1823.6387,21.7235196 1823.85327,21.2045023 1823.85327,20.5549961 C1823.85327,19.90549 1823.6387,19.3864727 1823.20957,18.9979289 C1822.78043,18.609385 1822.26431,18.415116 1821.6612,18.415116 C1821.05808,18.415116 1820.54197,18.609385 1820.11283,18.9979289 C1819.68369,19.3864727 1819.46912,19.90549 1819.46912,20.5549961 C1819.46912,21.2045023 1819.68369,21.7235196 1820.11283,22.1120634 Z M1841,19.0936146 L1841,24.9739357 L1838.3382,24.9739357 L1838.3382,19.6329339 C1838.3382,18.7282646 1837.91487,18.2759368 1837.06819,18.2759368 C1836.66225,18.2759368 1836.3259,18.4209136 1836.05914,18.7108718 C1835.79238,19.0008299 1835.659,19.4183633 1835.659,19.9634845 L1835.659,24.9739357 L1832.9972,24.9739357 L1832.9972,19.6851261 C1832.9972,19.2675865 1832.88991,18.9283406 1832.67534,18.6673783 C1832.46078,18.406416 1832.14473,18.2759368 1831.72719,18.2759368 C1831.34444,18.2759368 1831.01389,18.4209136 1830.73553,18.7108718 C1830.45717,19.0008299 1830.318,19.4183633 1830.318,19.9634845 L1830.318,24.9739357 L1827.6388,24.9739357 L1827.6388,16.1360566 L1830.318,16.1360566 L1830.318,17.110311 C1830.9675,16.2984282 1831.82577,15.892493 1832.89281,15.892493 C1834.00625,15.892493 1834.82392,16.3390218 1835.34585,17.2320928 C1835.98375,16.3390218 1836.90581,15.892493 1838.11203,15.892493 C1838.9935,15.892493 1839.69519,16.1824467 1840.21712,16.762363 C1840.73904,17.3422792 1841,18.1193553 1841,19.0936146 Z" id="mba.com-copy-50" stroke="none" fill="#FFFFFF" fill-rule="evenodd"></path>
</svg>